<?xml version="1.0"?>
<svg width="200" height="200" xmlns="http://www.w3.org/2000/svg" xmlns:svg="http://www.w3.org/2000/svg" xmlns:xlink="http://www.w3.org/1999/xlink">
 <title>Email</title>Created with Sketch (http://www.bohemiancoding.com/sketch)
 <defs>
  <symbol viewBox="0 0 70.074 70.074" height="512px" width="512px" y="0px" x="0px" id="svg_5" xmlns:xlink="http://www.w3.org/1999/xlink" xmlns="http://www.w3.org/2000/svg">
   <g>
    <g>
     <polygon fill="#FFFFFF" points="8.355,25.748 35.037,6.351 61.719,25.748 70.074,25.748 35.037,0.278 0,25.748   "/>
     <g>
      <rect fill="#FFFFFF" height="5.333" width="52.383" y="56.124" x="8.846"/>
      <rect fill="#FFFFFF" height="5.333" width="67.353" y="64.463" x="1.362"/>
     </g>
     <g>
      <path fill="#FFFFFF" d="m38.642,37.921c-0.563,-0.397 -1.51,-0.78 -2.833,-1.141l0,8.369c1.816,-0.084 3.066,-0.746 3.754,-1.987c0.358,-0.639 0.541,-1.384 0.541,-2.212c0.001,-1.328 -0.487,-2.334 -1.462,-3.029z"/>
      <path fill="#FFFFFF" d="m31.302,27.296c-0.593,0.794 -0.89,1.625 -0.89,2.497c0,1.049 0.35,1.874 1.049,2.467c0.703,0.598 1.646,1.012 2.835,1.24l0,-7.481c-1.399,0.056 -2.399,0.476 -2.994,1.277z"/>
      <path fill="#FFFFFF" d="m35.037,17.762c-10.105,0 -18.296,8.193 -18.296,18.293c0,10.105 8.191,18.299 18.296,18.299c10.105,0 18.297,-8.193 18.297,-18.299c0,-10.102 -8.191,-18.293 -18.297,-18.293zm5.181,28.426c-1.018,0.649 -2.489,1.09 -4.407,1.3l0,3.089l-1.511,0l0,-3.089c-3.089,-0.196 -5.186,-1.291 -6.288,-3.275c-0.605,-1.072 -0.907,-2.519 -0.907,-4.348l2.815,0c0.087,1.455 0.315,2.519 0.691,3.188c0.661,1.2 1.892,1.871 3.688,2.017l0,-8.673c-2.303,-0.438 -4.003,-1.161 -5.104,-2.182c-1.099,-1.021 -1.647,-2.432 -1.647,-4.232c0,-1.609 0.591,-3.064 1.776,-4.355c1.182,-1.302 2.84,-1.958 4.975,-1.981l0,-2.114l1.511,0l0,2.088c2.109,0.145 3.734,0.766 4.863,1.867c1.129,1.098 1.722,2.542 1.774,4.338l-2.785,0c-0.073,-0.807 -0.292,-1.505 -0.65,-2.086c-0.668,-1.072 -1.733,-1.633 -3.2,-1.689l0,7.75c2.464,0.69 4.134,1.339 5.014,1.943c1.428,0.997 2.145,2.471 2.145,4.428c0,2.817 -0.919,4.824 -2.753,6.016z"/>
     </g>
    </g>
   </g>
   <g/>
   <g/>
   <g/>
   <g/>
   <g/>
   <g/>
   <g/>
   <g/>
   <g/>
   <g/>
   <g/>
   <g/>
   <g/>
   <g/>
   <g/>
  </symbol>
 </defs>
 <g display="inline">
  <title>Layer 1</title>
  <g fill-rule="evenodd" fill="none" id="Page-1">
   <path fill="#009BCD" id="Email" d="m100,0c-55.2286,0 -100,44.7714 -100,100c0,55.2286 44.7714,100 100,100c55.2286,0 100,-44.7714 100,-100c0,-55.2286 -44.7714,-100 -100,-100z"/>
  </g>
  <g id="svg_7"/>
 </g>
 <g>
  <title>bank</title>
  <use x="0" y="0" transform="matrix(0.6523049583597551,0,0,0.6548507391081717,34.564560614511954,24.627447942405325) " xlink:href="#svg_5" id="svg_6"/>
 </g></svg>