<?xml version="1.0"?>
<svg width="200" height="200" xmlns="http://www.w3.org/2000/svg" xmlns:svg="http://www.w3.org/2000/svg">
 <title>Email</title>Created with Sketch (http://www.bohemiancoding.com/sketch)

 <g display="inline">
  <title>Layer 1</title>
  <g fill-rule="evenodd" fill="none" id="Page-1">
   <path fill="#009BCD" id="Email" d="m100,0c-55.2286,0 -100,44.7714 -100,100c0,55.2286 44.7714,100 100,100c55.2286,0 100,-44.7714 100,-100c0,-55.2286 -44.7714,-100 -100,-100z"/>
  </g>
 </g>
 <g display="inline">
  <title>person</title>
  <path id="svg_2" d="m126.327434,68.12408c0,0 4.824165,-21.155993 0,-28.322511c-4.829848,-7.166517 -6.756105,-11.940178 -17.376087,-15.357684s-6.750422,-2.736416 -14.472496,-2.38683c-7.722074,0.343559 -14.159977,4.77366 -14.159977,7.16049c0,0 -4.824165,0.343559 -6.750422,2.392857c-1.931939,2.049299 -5.148049,11.596619 -5.148049,13.989476s1.608055,18.431632 3.21611,21.843111l-1.914893,0.68109c-1.608055,19.787785 6.432221,22.180643 6.432221,22.180643c2.892226,18.431632 5.790135,10.584024 5.790135,15.357684s-2.897909,3.073948 -2.897909,3.073948s-2.568343,7.504049 -9.000563,10.234438c-6.432221,2.724362 -42.139,17.394928 -45.042591,20.468876c-2.903591,3.079975 -2.574025,17.406983 -2.574025,17.406983l153.117534,0c0,0 0.335248,-14.327008 -2.568343,-17.406983c-2.909273,-3.079975 -38.616052,-17.744514 -45.048273,-20.468876c-6.432221,-2.730389 -9.000563,-10.234438 -9.000563,-10.234438s-2.897909,1.699712 -2.897909,-3.073948s2.897909,3.073948 5.795817,-15.357684c0,0 8.034594,-2.392857 6.432221,-22.180643l-1.931939,0z" stroke-linecap="null" stroke-linejoin="null" stroke-dasharray="null" stroke-width="null" fill="#ffffff"/>
 </g></svg>